<?xml version="1.0" encoding="UTF-8" ?>
<!DOCTYPE svg PUBLIC "-//W3C//DTD SVG 1.1//EN" "http://www.w3.org/Graphics/SVG/1.1/DTD/svg11.dtd">
<svg width="1247pt" height="1233pt" viewBox="0 0 1247 1233" version="1.1" xmlns="http://www.w3.org/2000/svg">
<g id="#10304ef7">
<path fill="#10304e" opacity="0.97" d=" M 260.04 111.84 C 356.43 45.86 471.33 7.67 587.92 1.70 C 684.05 -3.43 781.42 12.59 870.42 49.46 C 974.12 91.98 1066.48 162.68 1133.03 253.02 C 1179.38 316.09 1213.18 388.53 1230.57 464.90 C 1250.02 550.99 1249.09 641.72 1227.20 727.26 C 1199.80 835.01 1139.59 933.80 1057.76 1008.90 C 1057.65 1021.63 1057.98 1034.37 1057.66 1047.11 C 1057.57 1050.90 1054.01 1053.14 1051.46 1055.40 C 1008.51 1090.59 961.26 1120.61 910.86 1143.94 C 908.24 1145.14 905.18 1145.72 902.46 1144.54 C 890.31 1139.92 878.40 1134.50 865.84 1131.09 C 860.54 1132.35 855.65 1135.01 850.45 1136.67 C 840.23 1140.42 829.91 1143.94 819.71 1147.76 C 816.07 1156.22 814.95 1165.53 811.01 1173.89 C 748.74 1193.66 686.27 1212.81 623.94 1232.36 C 621.32 1233.23 618.61 1232.29 616.08 1231.61 C 573.05 1218.03 529.97 1204.59 486.96 1190.96 C 469.15 1184.90 450.84 1180.37 433.25 1173.64 C 428.89 1165.17 427.55 1155.63 424.32 1146.75 C 409.79 1142.42 395.91 1136.22 381.49 1131.60 C 379.73 1130.92 377.91 1131.64 376.21 1132.10 C 363.90 1135.86 352.44 1142.00 339.96 1145.27 C 322.40 1138.01 305.51 1129.25 289.03 1119.83 C 254.48 1100.11 221.51 1077.52 191.17 1051.79 C 189.42 1050.41 189.47 1047.99 189.08 1046.02 C 187.29 1033.91 190.41 1021.58 188.21 1009.52 C 178.80 999.76 168.79 990.48 159.58 980.47 C 87.50 904.71 36.20 809.13 14.15 706.83 C -4.14 621.10 -2.38 531.00 20.26 446.26 C 38.33 376.92 70.38 311.46 112.76 253.77 C 153.33 198.55 203.49 150.48 260.04 111.84 M 320.55 83.54 C 257.88 117.14 201.11 161.75 153.81 214.85 C 107.89 266.57 70.73 326.29 45.94 390.92 C 25.86 443.36 13.75 498.87 10.23 554.92 C 7.52 597.70 9.99 640.78 17.13 683.03 C 30.21 759.13 59.61 832.30 102.29 896.61 C 135.23 946.59 175.94 991.42 222.50 1029.05 C 270.38 1005.40 320.36 985.99 371.75 971.47 C 367.67 958.69 363.97 945.79 360.08 932.95 C 359.49 930.79 358.26 928.83 356.45 927.50 C 312.11 896.17 273.63 856.50 243.85 811.09 C 206.03 753.72 183.00 686.60 178.23 618.01 C 175.49 578.50 178.32 538.56 187.20 499.94 C 199.88 444.27 224.56 391.44 258.80 345.77 C 294.21 298.33 339.46 258.33 390.67 228.67 C 427.59 207.22 467.51 190.92 508.95 180.56 C 587.35 160.78 670.87 161.75 748.80 183.29 C 817.72 202.39 882.28 237.63 934.83 286.23 C 977.87 325.78 1012.87 374.14 1036.35 427.70 C 1055.54 471.32 1066.76 518.40 1069.50 565.97 C 1073.81 639.89 1057.28 714.92 1022.00 780.05 C 989.88 839.88 943.04 891.60 887.19 930.15 C 882.38 933.56 882.00 939.95 880.39 945.12 C 878.35 953.81 874.09 961.93 873.42 970.93 C 925.03 985.98 975.52 1005.08 1023.66 1029.05 C 1060.99 998.74 1094.64 963.89 1123.53 925.45 C 1166.94 867.82 1199.48 801.96 1218.19 732.25 C 1239.97 651.23 1242.93 565.22 1226.72 482.91 C 1212.20 408.77 1182.28 337.73 1139.61 275.41 C 1081.05 188.80 998.76 118.95 905.07 72.90 C 832.64 37.31 753.35 15.82 672.89 9.72 C 551.66 0.40 427.55 25.47 320.55 83.54 M 453.27 206.21 C 409.25 223.67 368.25 248.52 331.94 278.88 C 281.97 321.03 241.76 374.83 216.12 435.01 C 199.06 474.93 188.83 517.71 185.71 560.99 C 180.54 632.68 195.45 705.68 228.36 769.58 C 258.29 827.90 302.27 878.82 355.12 917.54 C 348.88 895.15 341.93 872.98 335.30 850.71 C 334.30 846.55 330.29 844.30 327.70 841.21 C 281.76 793.52 248.05 733.64 233.39 668.92 C 233.82 668.78 234.69 668.49 235.12 668.35 C 234.63 668.43 233.66 668.59 233.17 668.67 C 219.62 609.99 221.30 547.94 237.87 490.05 C 249.89 447.93 269.68 408.06 295.82 372.91 C 348.80 301.42 426.72 249.11 512.66 226.26 L 511.98 227.60 C 512.91 226.66 514.05 225.91 515.36 225.60 C 560.08 213.64 606.83 209.77 652.98 212.95 C 725.79 218.13 797.13 243.18 857.06 284.91 C 906.33 319.18 947.83 364.79 976.24 417.73 C 1000.74 462.96 1015.50 513.46 1018.72 564.83 C 1021.51 607.78 1016.65 651.27 1004.03 692.44 C 1002.97 692.44 1001.92 692.46 1000.88 692.49 C 1001.65 692.54 1003.20 692.64 1003.97 692.70 C 991.19 734.42 970.75 773.68 944.27 808.34 C 935.03 820.34 924.98 831.70 914.67 842.79 C 912.61 845.08 910.01 847.12 909.13 850.21 C 901.64 873.47 894.62 896.88 888.14 920.44 C 941.01 882.83 985.34 833.06 1015.78 775.70 C 1053.67 705.37 1069.22 623.30 1060.01 543.96 C 1054.62 496.98 1040.59 451.05 1019.07 408.94 C 993.28 358.26 956.60 313.33 912.96 276.95 C 860.38 233.24 797.56 201.97 731.04 186.17 C 639.34 163.96 540.86 171.26 453.27 206.21 M 625.85 219.11 C 625.97 240.46 625.80 261.81 625.82 283.16 C 641.10 283.21 656.39 283.52 671.65 284.41 C 671.57 284.77 671.41 285.51 671.33 285.87 C 671.73 285.57 672.53 284.98 672.93 284.68 C 691.16 285.12 709.34 286.91 727.47 288.77 C 717.15 266.81 704.79 245.57 688.63 227.35 C 687.28 225.99 685.96 224.34 683.98 223.96 C 676.77 222.37 669.38 221.87 662.05 221.12 C 650.02 219.89 637.94 219.17 625.85 219.11 M 503.11 236.56 C 502.63 236.11 501.68 235.22 501.21 234.77 C 501.64 235.26 502.51 236.23 502.95 236.72 C 498.54 238.04 494.26 239.82 490.42 242.38 C 465.02 259.14 442.22 279.78 422.78 303.17 C 450.95 297.76 479.24 292.81 507.78 289.74 C 518.30 267.08 531.32 245.56 546.64 225.81 C 531.97 228.72 517.46 232.37 503.11 236.56 M 696.87 226.09 C 712.64 245.31 724.85 267.13 735.88 289.33 C 764.17 293.26 792.46 297.34 820.42 303.17 C 800.98 278.77 777.30 257.78 750.96 241.08 C 733.98 232.93 715.16 229.92 696.87 226.09 M 353.82 320.73 C 366.64 317.22 379.38 313.42 392.29 310.23 C 392.33 310.97 392.41 312.44 392.45 313.18 C 392.51 312.17 392.56 311.16 392.62 310.15 C 398.67 308.73 404.72 307.28 410.77 305.90 C 414.81 301.02 418.79 296.09 423.00 291.37 C 425.35 291.46 427.71 291.55 430.07 291.57 C 427.79 291.36 425.50 291.22 423.22 291.10 C 436.73 275.98 451.80 262.36 467.31 249.34 C 425.81 266.44 386.97 290.41 353.82 320.73 M 776.58 249.63 C 796.91 266.45 816.18 284.71 832.44 305.55 C 851.70 310.37 870.99 315.09 890.03 320.71 C 856.59 290.89 818.25 266.24 776.58 249.63 M 674.69 291.72 C 658.43 290.40 642.11 290.93 625.82 290.40 C 625.40 301.26 625.93 312.13 625.81 323.00 C 625.91 354.27 625.76 385.55 625.80 416.82 C 673.50 416.85 721.18 419.23 768.69 423.35 C 760.47 379.84 748.84 336.75 730.93 296.16 C 712.42 294.39 693.86 293.01 675.31 291.72 C 675.23 291.25 675.07 290.29 674.99 289.82 C 674.91 290.29 674.76 291.24 674.69 291.72 M 512.54 296.43 C 494.87 336.96 483.16 379.86 474.98 423.25 C 483.13 422.77 491.24 421.44 499.42 421.49 C 500.50 423.44 502.84 422.72 504.68 422.61 C 503.08 422.19 501.46 421.86 500.02 421.07 C 539.27 418.46 578.60 416.97 617.95 416.66 C 618.22 398.76 618.18 380.86 618.18 362.96 C 617.99 338.79 618.42 314.62 618.03 290.45 C 582.80 290.52 547.55 292.42 512.54 296.43 M 739.24 297.35 C 756.45 338.07 768.11 380.93 776.58 424.26 C 791.27 425.52 805.96 426.89 820.52 429.27 C 820.87 431.61 821.24 433.94 821.62 436.28 C 807.02 434.36 792.37 432.98 777.74 431.31 C 778.86 438.28 780.01 445.24 781.12 452.21 C 778.77 453.29 776.42 454.37 774.07 455.46 C 772.70 447.19 771.54 438.88 769.79 430.67 C 721.94 426.36 673.89 424.22 625.85 424.12 C 625.79 466.78 625.82 509.44 625.89 552.10 C 625.87 557.15 621.54 560.55 618.56 564.09 C 617.51 517.46 618.53 470.83 618.13 424.19 C 569.86 424.22 521.57 425.97 473.52 430.65 C 472.04 440.08 470.49 449.49 469.13 458.94 C 469.00 460.40 468.55 461.84 467.39 462.83 C 467.72 462.66 468.37 462.31 468.70 462.14 C 463.30 501.05 460.73 540.33 460.34 579.60 C 457.68 579.62 455.03 579.66 452.38 579.68 C 453.67 530.00 457.09 480.26 465.90 431.28 C 425.98 435.15 386.18 440.36 346.70 447.47 C 330.71 500.70 324.28 556.66 326.67 612.14 C 361.20 605.68 395.92 600.24 430.82 596.20 C 427.34 599.54 424.30 604.44 419.05 604.92 C 389.59 608.43 360.25 613.06 331.10 618.60 C 329.91 618.95 328.46 618.89 327.48 619.72 C 327.67 628.96 328.68 638.18 329.78 647.36 C 327.21 647.37 324.64 647.40 322.07 647.43 C 321.17 638.57 320.37 629.69 319.70 620.81 C 291.44 626.13 263.54 633.12 235.67 640.14 C 236.63 647.57 238.09 654.92 239.67 662.24 L 237.91 662.52 C 238.39 662.50 239.35 662.47 239.82 662.45 C 249.07 706.40 267.19 748.39 292.29 785.61 C 296.58 785.48 300.79 784.57 304.95 783.56 C 320.44 780.30 335.98 777.30 351.57 774.57 C 355.80 754.82 361.30 735.33 368.29 716.37 C 385.44 669.73 412.10 625.77 449.68 592.79 C 455.93 588.53 463.86 589.13 471.05 588.38 C 519.87 583.84 568.89 581.71 617.91 581.22 C 633.43 561.18 651.29 542.97 670.81 526.81 C 719.15 486.82 777.54 459.40 838.85 446.43 C 837.78 441.35 836.64 436.28 835.59 431.20 C 860.52 435.03 885.47 438.77 910.40 442.63 C 904.80 447.11 898.29 450.30 892.30 454.23 C 877.03 463.50 861.85 472.91 846.56 482.13 C 845.10 474.81 843.59 467.50 842.30 460.15 C 788.65 471.50 737.61 494.78 693.77 527.72 C 668.00 546.90 644.56 569.46 625.79 595.60 C 571.72 595.33 517.65 598.16 463.82 603.22 C 459.51 603.37 456.14 606.37 453.23 609.23 C 408.69 652.93 380.84 711.44 367.76 771.97 C 380.08 769.89 392.43 767.95 404.85 766.53 C 401.11 753.16 397.46 739.74 394.57 726.15 C 393.08 715.65 400.31 706.88 403.86 697.58 C 408.76 719.94 412.87 742.52 419.47 764.47 C 434.38 762.53 449.33 760.91 464.29 759.37 C 456.24 715.73 451.16 671.50 449.87 627.14 C 454.56 622.45 459.21 617.73 464.06 613.21 C 465.94 661.75 470.26 710.34 480.08 757.98 C 498.23 756.50 516.39 755.21 534.58 754.34 C 529.59 705.95 527.25 657.32 526.83 608.68 C 531.77 608.26 536.73 608.00 541.68 607.68 C 541.91 656.36 544.55 705.02 549.28 753.47 C 570.76 752.31 592.29 752.81 613.78 751.97 C 613.83 703.22 613.30 654.46 614.09 605.71 C 618.85 605.64 623.62 605.58 628.39 605.54 C 628.95 654.44 628.27 703.34 628.75 752.24 C 650.61 752.43 672.46 752.53 694.30 753.39 C 699.71 700.55 702.03 647.42 702.17 594.30 C 681.74 593.47 661.31 592.81 640.87 592.47 C 642.84 590.10 644.85 587.76 646.89 585.45 C 665.34 585.70 683.77 586.49 702.21 587.12 C 702.15 569.72 701.70 552.33 701.74 534.92 C 705.91 530.86 710.89 527.80 715.74 524.63 C 716.67 545.72 717.02 566.83 717.09 587.93 C 737.97 589.26 758.87 590.55 779.67 592.87 C 780.01 559.26 778.11 525.66 774.81 492.21 C 779.61 490.30 784.42 488.42 789.28 486.67 C 792.86 522.44 794.98 558.39 794.55 594.35 C 812.41 596.09 830.20 598.43 847.98 600.86 C 848.57 567.41 846.92 533.90 842.53 500.73 C 847.09 497.89 851.67 495.08 856.31 492.35 C 861.31 528.00 863.59 564.06 862.87 600.06 C 862.52 603.41 866.68 603.69 869.02 604.17 C 883.24 606.12 897.31 608.99 911.50 611.16 C 913.78 562.79 908.23 514.35 898.24 467.06 C 902.20 463.79 906.68 461.26 911.18 458.80 C 923.67 509.52 928.40 562.07 926.18 614.23 C 953.94 619.74 981.52 626.13 1008.83 633.53 C 1014.27 594.53 1012.55 554.59 1004.25 516.11 C 1004.61 516.25 1005.35 516.51 1005.71 516.64 C 1004.56 515.94 1003.86 514.85 1003.69 513.54 C 1000.45 498.91 996.33 484.48 991.30 470.37 C 990.53 467.91 987.73 467.36 985.61 466.63 C 964.50 460.88 942.85 457.44 921.69 451.87 C 925.44 449.84 929.28 446.50 933.85 447.63 C 951.78 451.13 969.53 455.48 987.35 459.51 C 969.27 413.72 941.42 372.05 907.15 336.82 C 904.13 333.90 900.55 331.51 896.49 330.35 C 877.83 324.82 859.14 319.28 840.10 315.15 C 864.69 349.21 884.26 386.86 898.18 426.50 C 895.48 426.38 892.80 426.26 890.12 426.14 C 875.53 386.71 856.22 348.78 830.66 315.30 C 828.95 313.26 826.56 311.87 823.96 311.35 C 795.98 305.26 767.68 300.70 739.24 297.35 M 391.37 317.96 C 377.84 321.42 364.42 325.27 351.01 329.15 C 346.28 330.59 341.17 331.89 337.68 335.64 C 302.78 370.94 274.72 413.14 256.42 459.32 C 284.18 452.48 312.10 446.24 340.31 441.55 C 350.38 411.18 362.56 381.36 378.64 353.64 C 386.08 340.12 395.08 327.58 403.58 314.73 C 399.60 315.75 395.64 316.82 391.68 317.90 C 391.65 316.91 391.57 314.93 391.54 313.94 C 391.47 315.28 391.41 316.61 391.37 317.96 M 717.03 595.12 C 716.96 648.42 713.90 701.67 709.46 754.77 C 727.59 754.75 745.60 757.10 763.70 757.95 C 774.11 705.92 778.61 652.87 779.85 599.87 C 758.94 597.98 737.99 596.45 717.03 595.12 M 794.52 601.57 C 793.88 654.55 789.06 707.52 779.30 759.62 C 794.32 761.02 809.31 762.70 824.28 764.58 C 838.89 713.79 846.00 661.06 848.09 608.33 C 830.30 605.55 812.42 603.46 794.52 601.57 M 862.63 611.01 C 861.13 663.59 853.16 715.99 838.97 766.65 C 852.09 768.19 865.12 770.39 878.19 772.31 C 897.16 723.28 908.09 671.22 911.06 618.76 C 894.98 615.85 878.98 612.13 862.63 611.01 M 925.90 621.46 C 922.17 673.76 911.84 725.79 892.95 774.78 C 912.28 778.51 931.64 782.10 950.85 786.43 C 980.22 742.89 1000.03 692.90 1007.95 640.97 C 1005.53 639.41 1002.25 639.31 999.51 638.39 C 975.13 632.08 950.62 626.27 925.90 621.46 M 550.31 760.77 C 553.13 793.85 558.42 826.67 564.70 859.26 C 582.18 861.18 599.33 867.05 613.64 877.38 C 613.85 838.02 613.69 798.65 613.64 759.29 C 592.52 758.97 571.42 760.10 550.31 760.77 M 628.51 759.36 C 628.67 798.74 628.58 838.13 628.57 877.51 C 637.50 871.76 646.70 866.03 657.09 863.34 C 664.13 861.00 671.71 861.14 678.70 858.62 C 685.82 826.36 689.94 793.53 693.65 760.73 C 671.94 760.12 650.23 758.96 628.51 759.36 M 481.44 765.38 C 488.19 796.82 496.60 827.97 508.13 858.01 C 521.84 857.73 535.55 857.61 549.25 858.18 C 543.20 826.17 538.63 793.89 535.14 761.51 C 517.22 762.50 499.29 763.45 481.44 765.38 M 708.47 761.48 C 704.95 793.82 700.62 826.10 694.24 858.01 C 708.04 857.66 721.84 857.81 735.64 857.92 C 746.91 827.85 755.44 796.83 762.31 765.48 C 744.42 763.48 726.41 762.78 708.47 761.48 M 421.56 771.47 C 428.16 792.40 435.66 813.08 444.85 833.03 C 448.50 840.56 451.83 848.33 456.31 855.40 C 467.79 857.91 479.65 857.53 491.33 858.20 C 480.49 828.42 472.15 797.76 465.80 766.72 C 451.00 767.75 436.29 769.73 421.56 771.47 M 752.24 858.11 C 764.09 857.96 775.90 856.89 787.69 855.85 C 801.52 828.80 813.36 800.68 822.00 771.54 C 807.29 769.95 792.63 767.91 777.88 766.75 C 771.29 797.70 763.62 828.53 752.24 858.11 M 368.42 779.03 C 377.31 801.55 388.82 822.94 401.38 843.60 C 402.62 845.57 403.94 847.93 406.53 848.21 C 417.18 850.50 427.99 851.94 438.74 853.63 C 425.83 827.91 415.10 801.08 407.00 773.45 C 394.08 774.87 381.24 776.93 368.42 779.03 M 836.65 774.30 C 828.13 801.38 817.71 827.88 805.21 853.38 C 815.85 851.85 826.47 850.15 837.03 848.12 C 839.91 847.70 841.26 844.81 842.77 842.68 C 855.27 822.48 866.24 801.31 875.21 779.31 C 862.36 777.63 849.69 774.07 836.65 774.30 M 296.99 792.52 C 311.42 813.47 328.64 832.38 347.06 849.88 C 350.22 853.15 355.02 853.33 359.18 854.40 C 358.19 848.75 357.21 843.09 356.28 837.43 C 365.12 839.58 373.94 841.87 382.90 843.46 L 382.50 844.74 C 383.05 844.10 383.61 843.47 384.17 842.84 C 371.93 823.43 362.42 802.49 353.24 781.52 C 334.43 784.85 315.63 788.31 296.99 792.52 M 890.20 781.81 C 881.76 802.12 872.14 821.97 860.77 840.82 C 860.20 841.99 859.10 842.67 858.03 843.32 C 867.64 842.58 876.85 839.40 886.27 837.54 C 885.25 843.11 884.15 848.66 883.30 854.26 C 888.30 853.08 894.05 852.77 897.81 848.81 C 915.45 831.46 932.61 813.27 946.32 792.61 C 927.65 788.81 909.03 784.76 890.20 781.81 M 773.45 861.16 C 739.42 864.47 705.01 858.94 671.13 864.53 C 655.03 867.23 638.88 873.46 627.28 885.31 C 625.75 886.97 623.73 888.62 623.65 891.08 C 623.03 897.22 623.51 903.41 623.57 909.57 C 642.74 905.91 661.73 901.40 680.81 897.30 L 680.41 898.92 C 680.61 898.52 681.02 897.71 681.22 897.31 C 747.09 883.25 813.00 869.34 878.82 855.07 C 879.43 851.04 879.97 847.01 880.51 842.97 C 845.33 851.57 809.55 858.04 773.45 861.16 M 361.71 843.17 C 362.46 847.32 363.27 851.47 364.11 855.61 C 449.24 873.18 534.14 891.89 619.23 909.68 C 619.09 903.13 619.86 896.49 618.76 890.00 C 613.37 882.14 605.23 876.49 596.78 872.31 C 581.67 864.88 564.62 863.09 548.02 862.20 C 522.66 860.94 497.24 863.63 471.91 861.37 C 434.73 858.54 398.01 851.49 361.71 843.17 M 628.68 916.87 C 628.62 923.37 628.63 929.87 628.67 936.37 C 666.70 936.58 704.72 939.18 742.43 944.09 C 742.46 944.59 742.52 945.60 742.55 946.10 L 742.56 944.18 C 783.60 949.61 824.38 957.40 864.23 968.66 C 875.67 932.44 886.20 895.94 897.24 859.60 C 807.68 878.52 718.17 897.63 628.68 916.87 M 346.91 860.21 C 358.00 896.44 368.67 932.81 379.76 969.04 C 425.31 956.93 471.61 947.28 518.51 942.27 C 518.49 943.02 518.44 944.51 518.42 945.25 C 518.53 944.55 518.74 943.15 518.84 942.44 C 550.26 938.28 582.03 937.04 613.70 936.28 C 613.83 929.73 613.78 923.18 613.59 916.64 C 584.32 910.63 555.12 904.32 525.91 898.08 C 524.65 897.94 523.77 897.04 522.97 896.17 L 523.78 897.73 C 464.85 885.10 405.94 872.34 346.91 860.21 M 519.63 949.47 C 519.61 948.58 519.56 946.79 519.53 945.90 C 519.46 947.09 519.41 948.29 519.37 949.50 C 407.88 962.52 298.31 995.55 199.77 1049.63 C 242.52 1085.04 290.17 1114.26 340.16 1138.26 C 519.12 1064.44 727.00 1064.59 905.98 1138.27 C 956.22 1114.51 1003.75 1084.84 1046.69 1049.52 C 886.88 962.90 699.98 928.67 519.63 949.47 M 424.31 1117.19 C 429.44 1133.91 434.01 1150.81 439.59 1167.40 C 443.48 1168.83 447.38 1170.22 451.33 1171.49 C 492.26 1184.15 533.08 1197.21 573.96 1210.05 C 589.97 1214.92 605.88 1220.29 622.03 1224.65 C 637.46 1220.20 652.71 1215.00 668.09 1210.32 C 712.67 1196.35 757.29 1182.50 801.91 1168.67 C 804.97 1168.08 805.57 1164.64 806.44 1162.17 C 810.86 1146.88 815.55 1131.67 820.06 1116.41 C 757.77 1099.57 693.36 1090.54 628.82 1090.08 C 628.23 1119.19 628.78 1148.31 628.61 1177.43 C 626.30 1178.67 624.00 1179.93 621.74 1181.25 C 619.17 1179.94 615.89 1179.36 614.14 1176.90 C 613.57 1173.94 613.81 1170.92 613.75 1167.95 C 613.54 1142.06 613.97 1116.16 613.64 1090.27 C 549.75 1091.14 485.74 1099.35 424.31 1117.19 M 828.31 1118.81 C 826.19 1125.46 824.10 1132.12 822.21 1138.84 C 832.92 1135.11 844.04 1132.18 854.10 1126.85 C 845.64 1123.73 836.80 1121.81 828.31 1118.81 M 391.50 1127.22 C 401.31 1131.47 411.46 1134.88 421.62 1138.21 C 420.04 1131.86 418.00 1125.64 415.86 1119.47 C 407.68 1121.86 399.50 1124.28 391.50 1127.22 Z" />
<path fill="#10304e" opacity="0.97" d=" M 681.39 44.52 C 685.01 41.92 691.67 43.99 691.25 49.02 C 691.76 53.71 685.72 55.66 682.17 53.83 C 678.48 52.41 678.00 46.53 681.39 44.52 Z" />
<path fill="#10304e" opacity="0.97" d=" M 668.26 56.63 C 678.63 56.93 688.89 58.66 699.20 59.66 C 697.30 63.38 692.48 62.65 689.03 63.29 C 686.74 81.50 684.50 99.71 682.84 117.99 C 682.09 123.19 688.97 122.66 692.28 124.03 C 691.57 124.74 690.86 125.46 690.17 126.18 C 680.42 124.89 670.08 126.13 660.92 121.92 C 664.47 121.22 668.03 120.55 671.59 119.92 C 674.25 100.58 676.52 81.19 678.08 61.73 C 674.48 60.80 670.22 60.26 668.26 56.63 Z" />
<path fill="#10304e" opacity="0.97" d=" M 501.22 66.62 C 520.63 63.43 540.12 60.75 559.48 57.23 C 560.65 63.20 562.98 69.42 560.77 75.45 C 558.28 72.25 557.28 68.23 555.13 64.84 C 549.20 61.91 542.42 63.85 536.32 65.13 C 539.77 84.48 542.86 103.89 546.68 123.17 C 550.44 123.30 554.28 122.93 558.00 123.70 C 558.01 124.32 558.03 125.57 558.05 126.19 C 546.73 127.81 535.50 130.17 524.08 131.00 C 526.74 127.01 531.73 126.36 535.97 125.07 C 532.96 105.48 529.19 86.01 525.82 66.48 C 520.05 67.52 513.36 67.54 508.86 71.83 C 506.65 75.19 507.43 79.52 506.87 83.32 C 500.78 80.03 502.59 72.29 501.22 66.62 Z" />
<path fill="#10304e" opacity="0.97" d=" M 708.75 75.68 C 713.49 69.76 720.43 65.35 728.09 64.62 C 740.07 63.37 753.26 66.20 761.93 75.04 C 768.59 81.76 770.17 91.89 769.09 100.95 C 767.81 111.72 763.44 122.90 754.43 129.48 C 748.87 133.72 741.79 134.97 735.00 135.54 C 738.35 144.60 745.58 151.74 754.38 155.58 C 749.04 156.39 743.42 156.02 738.58 153.47 C 730.61 149.56 725.03 141.88 722.59 133.47 C 716.65 130.75 710.08 128.37 705.95 123.01 C 700.57 116.32 699.03 107.33 699.99 98.97 C 700.96 90.69 703.37 82.24 708.75 75.68 M 733.43 68.61 C 724.65 70.00 718.65 77.74 715.54 85.53 C 711.62 95.54 709.59 106.87 712.41 117.42 C 716.14 130.73 735.23 135.60 745.17 126.22 C 753.98 117.26 758.05 104.40 757.95 92.00 C 757.79 87.03 757.55 81.70 754.70 77.43 C 750.20 70.59 741.38 67.31 733.43 68.61 Z" />
<path fill="#10304e" opacity="0.97" d=" M 614.49 72.68 C 625.02 69.72 637.49 79.90 634.93 91.01 C 633.38 99.07 624.95 104.26 617.05 103.58 C 608.40 103.26 600.58 94.59 602.25 85.87 C 603.22 79.52 608.23 74.14 614.49 72.68 Z" />
<path fill="#10304e" opacity="0.97" d=" M 432.03 89.30 C 443.49 81.61 456.77 74.17 471.10 76.14 C 481.13 77.06 489.33 84.42 493.91 93.03 C 499.25 103.17 502.21 115.41 498.47 126.59 C 496.42 133.04 491.70 138.53 485.60 141.48 C 476.43 146.34 465.00 147.98 455.30 143.72 C 445.82 139.33 438.99 129.91 437.48 119.59 C 453.82 114.67 470.17 109.74 486.62 105.16 C 483.33 97.23 479.78 88.69 472.46 83.64 C 463.20 77.14 448.97 80.67 443.40 90.39 C 440.58 95.07 440.57 100.70 439.83 105.95 C 434.26 102.21 434.29 94.97 432.03 89.30 M 449.39 120.15 C 451.68 126.93 455.09 133.71 461.00 138.05 C 468.30 143.64 480.52 142.66 485.70 134.62 C 490.99 127.19 489.63 117.47 487.84 109.11 C 475.03 112.82 462.18 116.38 449.39 120.15 Z" />
<path fill="#10304e" opacity="0.97" d=" M 781.12 94.35 C 781.74 88.14 784.29 82.40 786.84 76.79 C 805.29 83.18 823.81 89.35 842.30 95.62 C 840.08 101.23 839.98 108.72 833.91 111.81 C 833.79 107.28 835.86 102.01 832.94 98.01 C 828.78 94.45 823.23 93.30 818.16 91.63 C 811.34 110.18 803.82 128.47 797.35 147.14 C 801.08 149.31 805.00 151.20 808.39 153.92 C 804.97 154.64 801.56 153.91 798.40 152.59 C 790.20 149.45 781.48 147.50 773.76 143.23 C 778.13 141.75 782.64 143.97 787.02 142.92 C 795.18 125.03 801.07 106.14 808.32 87.85 C 802.80 86.31 797.21 83.75 791.38 84.43 C 787.13 86.80 785.31 91.84 781.12 94.35 Z" />
<path fill="#10304e" opacity="0.97" d=" M 864.28 93.45 C 867.35 93.36 871.09 91.93 873.67 94.28 C 876.02 96.19 875.09 99.51 875.27 102.13 C 871.99 102.62 867.92 104.68 865.18 101.85 C 862.63 99.73 864.10 96.21 864.28 93.45 Z" />
<path fill="#10304e" opacity="0.97" d=" M 850.08 101.06 C 860.58 102.51 869.50 108.64 879.16 112.52 C 876.38 115.55 872.41 113.17 869.01 113.17 C 867.63 113.21 867.13 114.61 866.56 115.60 C 858.51 132.38 849.24 148.59 842.10 165.81 C 844.87 167.66 847.66 169.49 850.41 171.39 C 848.71 172.03 846.82 172.76 845.06 171.96 C 840.62 170.20 836.61 167.48 832.06 165.97 C 827.90 164.55 823.55 162.85 821.12 158.95 C 824.66 159.44 828.16 160.19 831.63 161.07 C 836.82 153.08 840.54 144.29 844.81 135.82 C 849.17 126.85 854.12 118.17 858.03 108.98 C 855.73 106.00 852.88 103.54 850.08 101.06 Z" />
<path fill="#10304e" opacity="0.97" d=" M 358.94 116.58 C 368.11 112.02 377.58 108.10 386.72 103.47 C 387.11 104.60 387.51 105.74 387.92 106.87 C 385.35 108.36 382.86 109.96 380.42 111.65 C 386.09 126.66 394.71 140.28 401.16 154.94 C 402.71 157.99 403.82 161.71 407.03 163.46 C 414.34 162.81 421.42 159.68 427.15 155.15 C 431.91 150.77 429.36 143.71 429.57 138.11 C 435.29 142.22 436.23 149.58 438.39 155.76 C 423.97 161.65 409.88 168.32 395.61 174.54 C 393.22 175.65 390.54 175.58 387.98 175.75 C 390.75 173.42 393.60 171.21 396.48 169.02 C 387.69 151.51 379.61 133.64 370.04 116.53 C 366.38 117.15 362.44 118.61 358.94 116.58 Z" />
<path fill="#10304e" opacity="0.97" d=" M 334.93 131.65 C 340.31 124.52 348.78 120.82 356.97 117.98 C 355.27 120.39 353.53 122.79 351.75 125.15 C 353.99 147.52 360.37 169.16 365.03 191.09 C 362.80 192.53 360.57 193.95 358.31 195.34 C 341.21 181.84 323.61 168.98 306.02 156.12 C 302.22 153.33 297.36 155.50 293.11 155.70 C 300.93 149.46 309.20 143.02 319.22 140.93 C 317.05 143.51 314.73 145.96 312.34 148.33 C 327.36 159.74 342.47 171.03 357.68 182.19 C 354.08 164.28 350.15 146.41 345.09 128.84 C 341.73 129.86 338.35 130.83 334.93 131.65 Z" />
<path fill="#10304e" opacity="0.97" d=" M 881.60 140.14 C 882.90 131.15 892.04 124.23 901.04 125.27 C 911.76 126.18 921.43 132.60 927.58 141.26 C 924.69 146.05 921.75 150.92 917.54 154.69 C 917.54 149.82 918.92 144.97 918.39 140.12 C 916.12 133.56 908.79 129.08 901.92 130.23 C 896.97 131.03 893.85 135.68 891.77 139.82 C 893.17 151.98 906.16 158.26 908.57 170.03 C 911.39 181.58 900.71 193.70 888.99 192.97 C 876.55 192.68 865.81 184.53 858.82 174.76 C 861.20 168.96 864.15 163.34 867.99 158.36 C 870.22 164.19 866.58 170.31 868.56 176.16 C 871.00 184.93 882.03 190.63 890.34 186.27 C 894.76 184.12 896.30 179.13 898.23 174.99 C 896.46 167.37 890.92 161.67 886.47 155.54 C 883.30 151.12 880.80 145.71 881.60 140.14 Z" />
<path fill="#10304e" opacity="0.97" d=" M 261.20 160.96 C 261.16 158.06 264.96 157.81 267.09 157.44 C 270.69 156.81 273.77 160.57 272.90 163.96 C 271.81 166.61 269.05 167.98 266.96 169.75 C 263.67 168.10 260.45 165.01 261.20 160.96 Z" />
<path fill="#10304e" opacity="0.97" d=" M 908.38 198.22 C 927.76 187.42 946.30 175.17 965.65 164.29 C 967.64 165.59 969.64 166.87 971.65 168.15 C 964.63 189.85 956.13 211.05 949.51 232.88 C 951.28 234.71 953.09 236.51 954.95 238.27 C 954.32 238.97 953.70 239.68 953.09 240.39 C 945.49 234.35 936.91 229.51 930.13 222.49 C 933.72 222.86 937.15 223.98 940.46 225.40 C 943.30 218.38 946.85 211.52 947.80 203.90 C 942.02 199.63 936.64 194.71 930.13 191.53 C 923.44 194.93 917.51 199.54 911.31 203.71 C 913.66 206.42 916.13 209.22 916.76 212.90 C 909.71 208.23 901.41 204.50 896.99 196.89 C 900.66 197.72 904.68 200.27 908.38 198.22 M 934.25 188.57 C 939.46 192.48 944.74 196.29 950.04 200.09 C 953.29 191.07 956.47 182.03 959.58 172.97 C 950.96 177.88 942.64 183.29 934.25 188.57 Z" />
<path fill="#10304e" opacity="0.97" d=" M 278.55 167.67 C 287.08 165.43 296.31 167.67 303.60 172.43 C 309.85 176.73 315.18 182.41 319.27 188.80 C 324.01 196.22 326.03 205.72 323.18 214.21 C 320.30 222.22 313.75 228.25 306.75 232.75 C 298.62 238.03 287.95 239.72 278.82 236.12 C 265.86 230.88 255.29 219.63 251.53 206.10 C 249.47 199.66 250.34 192.47 253.69 186.62 C 259.03 177.35 268.46 170.84 278.55 167.67 M 272.47 174.66 C 264.07 177.80 256.89 186.81 259.21 196.11 C 263.17 210.67 274.13 222.88 287.56 229.50 C 298.36 234.74 313.10 227.88 315.76 216.11 C 317.14 208.15 313.56 200.31 308.95 194.02 C 303.68 187.05 297.49 180.46 289.65 176.38 C 284.43 173.66 278.10 172.54 272.47 174.66 Z" />
<path fill="#10304e" opacity="0.97" d=" M 248.49 170.64 C 252.85 167.96 258.27 173.51 256.12 177.88 C 254.34 182.66 247.03 182.37 244.70 178.24 C 243.57 175.21 245.67 171.84 248.49 170.64 Z" />
<path fill="#10304e" opacity="0.97" d=" M 1004.51 193.58 C 1013.71 202.33 1022.74 211.26 1031.60 220.36 C 1038.50 227.71 1043.69 238.27 1040.66 248.47 C 1035.57 263.90 1020.42 276.03 1003.97 276.26 C 994.66 276.46 986.37 271.37 979.40 265.71 C 970.63 258.47 963.41 249.62 954.97 242.03 C 955.68 241.32 956.39 240.61 957.11 239.90 C 959.13 241.11 961.15 242.32 963.19 243.52 C 978.00 230.03 992.85 216.58 1007.63 203.06 C 1005.95 200.70 1004.29 198.33 1002.63 195.97 C 1003.10 195.37 1004.04 194.17 1004.51 193.58 M 979.96 241.99 C 977.25 244.56 974.16 246.97 972.50 250.40 C 971.65 252.63 973.55 254.56 974.89 256.11 C 980.90 262.63 988.75 268.69 998.01 268.81 C 1007.96 268.29 1016.52 262.08 1023.33 255.27 C 1028.96 249.47 1034.03 241.71 1032.74 233.25 C 1030.74 223.33 1023.02 215.81 1014.86 210.45 C 1002.93 220.63 991.75 231.65 979.96 241.99 Z" />
<path fill="#10304e" opacity="0.97" d=" M 219.99 222.01 C 231.32 218.56 243.51 223.36 251.98 231.02 C 258.23 236.81 264.26 244.08 264.82 252.95 C 265.57 263.04 260.81 272.82 253.83 279.87 C 246.92 287.27 240.30 294.97 232.92 301.91 C 231.67 303.27 229.68 303.17 228.05 303.67 C 229.52 301.12 231.49 298.81 232.44 295.99 C 232.92 294.39 231.54 293.29 230.51 292.37 C 216.27 280.42 202.28 268.17 187.77 256.55 C 184.30 258.28 180.81 259.99 177.19 261.37 C 180.65 254.70 186.79 250.15 191.63 244.58 C 199.84 235.75 208.04 225.73 219.99 222.01 M 197.79 243.82 C 196.07 245.64 194.75 248.97 197.32 250.70 C 211.47 262.79 225.28 275.32 240.21 286.47 C 248.70 281.45 256.27 273.18 257.21 262.97 C 257.99 255.63 253.40 249.32 248.89 244.05 C 242.19 236.59 233.13 230.60 223.01 229.39 C 212.55 228.78 203.87 236.07 197.79 243.82 Z" />
<path fill="#10304e" opacity="0.97" d=" M 1053.49 286.70 C 1061.55 284.95 1071.32 289.24 1073.37 297.72 C 1076.55 307.61 1067.17 318.30 1057.11 317.56 C 1053.52 317.22 1049.73 316.54 1046.85 314.22 C 1040.82 309.37 1039.28 299.92 1043.32 293.35 C 1045.50 289.75 1049.44 287.55 1053.49 286.70 Z" />
<path fill="#10304e" opacity="0.97" d=" M 170.38 306.47 C 179.96 303.16 192.41 310.37 192.12 321.07 C 192.80 328.56 186.59 334.91 179.63 336.49 C 173.59 338.15 166.73 336.13 162.69 331.32 C 158.51 326.19 158.21 318.38 161.75 312.83 C 163.71 309.73 166.98 307.68 170.38 306.47 Z" />
<path fill="#10304e" opacity="0.97" d=" M 1109.02 318.15 C 1109.44 318.14 1110.27 318.13 1110.69 318.12 C 1116.49 325.85 1120.53 334.77 1124.41 343.58 C 1120.44 342.92 1118.23 339.45 1115.96 336.54 C 1104.57 341.40 1093.62 347.23 1082.32 352.28 C 1075.50 355.52 1067.91 359.53 1065.18 367.08 C 1061.39 378.35 1073.55 390.89 1084.95 387.64 C 1101.37 383.04 1115.97 373.94 1131.34 366.84 C 1131.33 363.24 1130.22 359.67 1130.08 356.05 C 1132.30 358.14 1134.22 360.57 1135.54 363.35 C 1138.87 370.16 1143.23 376.58 1144.92 384.08 C 1141.93 381.96 1139.51 379.19 1137.37 376.26 C 1121.63 381.39 1107.85 391.08 1092.06 396.05 C 1084.10 398.65 1074.75 396.05 1069.37 389.61 C 1063.13 382.27 1057.98 373.03 1058.67 363.10 C 1059.06 356.35 1064.17 351.07 1069.62 347.66 C 1082.80 339.90 1097.63 335.19 1110.56 327.02 C 1110.67 323.97 1108.41 321.15 1109.02 318.15 Z" />
<path fill="#10304e" opacity="0.97" d=" M 119.62 346.05 C 121.92 348.72 120.71 352.14 119.83 355.12 C 123.43 357.65 127.21 359.96 131.32 361.58 C 147.60 367.98 163.77 374.67 180.04 381.12 C 179.08 383.51 179.24 387.57 175.92 387.89 C 152.47 392.67 129.02 397.52 105.55 402.24 C 110.86 405.79 116.95 407.83 122.87 410.14 C 133.85 414.25 144.35 419.96 155.96 422.18 C 158.77 419.61 161.43 416.89 164.07 414.16 C 162.82 420.82 161.00 427.56 157.12 433.20 C 155.95 435.18 154.54 437.04 152.43 438.10 C 152.84 435.23 153.35 432.39 153.91 429.55 C 147.81 425.35 140.89 422.64 134.03 419.97 C 121.67 415.14 109.61 409.53 96.98 405.45 C 95.18 408.32 94.00 412.29 90.18 413.00 C 90.79 406.32 94.52 400.55 97.32 394.65 C 119.47 388.89 142.19 385.60 164.46 380.35 C 149.99 374.45 135.78 367.75 120.80 363.20 C 115.52 361.86 113.09 367.95 109.35 370.38 C 110.98 361.61 115.66 353.90 119.62 346.05 Z" />
<path fill="#10304e" opacity="0.97" d=" M 1148.56 393.61 C 1153.36 398.95 1154.55 406.25 1156.04 413.02 C 1142.97 430.43 1128.28 446.58 1115.70 464.37 C 1125.25 461.89 1134.61 458.76 1144.06 455.93 C 1150.86 453.78 1158.13 452.28 1163.84 447.74 C 1163.10 444.53 1162.27 441.06 1164.16 438.05 C 1167.42 446.03 1173.01 454.33 1170.87 463.30 C 1169.54 461.07 1168.26 458.83 1167.05 456.56 C 1160.10 455.77 1153.47 458.25 1146.94 460.20 C 1132.13 464.66 1117.22 468.77 1102.57 473.75 C 1101.67 471.55 1100.78 469.35 1099.90 467.16 C 1115.47 448.68 1129.99 429.35 1145.44 410.77 C 1133.68 413.33 1122.31 417.37 1110.77 420.72 C 1104.87 422.61 1098.46 423.71 1093.36 427.40 C 1090.97 430.45 1092.87 434.72 1092.58 438.24 C 1086.12 431.74 1085.52 422.14 1082.66 413.89 C 1086.92 415.73 1089.59 422.06 1094.97 419.98 C 1112.94 415.55 1130.43 409.40 1148.23 404.34 C 1148.20 400.76 1148.27 397.18 1148.56 393.61 Z" />
<path fill="#10304e" opacity="0.97" d=" M 145.11 444.81 C 149.51 444.37 151.12 439.33 154.75 437.44 C 153.30 445.03 151.67 452.65 148.93 459.90 C 148.40 461.71 146.94 462.93 145.57 464.12 C 145.53 461.06 145.63 458.02 145.75 454.97 C 137.81 454.90 129.88 455.57 121.98 456.24 C 119.78 463.20 118.01 470.29 116.24 477.37 C 122.87 481.35 129.53 485.27 136.21 489.18 C 137.88 485.77 139.89 482.49 142.83 480.03 C 141.86 488.31 139.25 496.27 136.38 504.06 C 133.89 500.70 134.99 495.38 131.04 493.06 C 113.11 480.41 94.21 469.23 75.98 457.03 C 76.72 454.69 77.45 452.35 78.19 450.01 C 100.49 448.28 122.82 446.70 145.11 444.81 M 87.60 458.84 C 95.39 464.77 103.91 469.63 112.25 474.73 C 114.01 468.70 115.72 462.65 117.46 456.62 C 107.48 457.04 97.54 457.96 87.60 458.84 Z" />
<path fill="#10304e" opacity="0.97" d=" M 1171.32 482.11 C 1171.87 478.76 1172.36 475.41 1172.87 472.07 C 1174.22 473.83 1175.62 475.70 1175.93 477.98 C 1177.37 485.88 1179.66 493.69 1179.76 501.78 C 1176.91 499.47 1175.38 496.12 1173.89 492.88 C 1153.47 495.13 1133.51 500.17 1113.28 503.58 C 1113.24 507.05 1113.19 510.52 1113.06 513.99 C 1110.38 512.15 1109.28 509.08 1108.83 506.01 C 1107.46 498.93 1105.94 491.87 1104.76 484.76 C 1108.28 486.43 1109.76 490.19 1111.74 493.29 C 1131.67 489.98 1151.62 486.63 1171.32 482.11 Z" />
<path fill="#10304e" opacity="0.97" d=" M 1184.26 478.86 C 1186.97 479.20 1189.65 479.76 1192.28 480.52 C 1191.98 483.76 1193.27 488.80 1189.20 490.12 C 1185.13 492.28 1182.20 487.83 1180.01 485.12 C 1181.42 483.03 1182.85 480.95 1184.26 478.86 Z" />
<path fill="#10304e" opacity="0.97" d=" M 69.21 494.84 C 75.00 495.88 81.80 494.67 86.36 499.26 C 81.39 500.68 75.58 500.82 71.65 504.61 C 66.38 510.21 64.74 518.77 66.98 526.06 C 68.98 532.64 74.63 537.44 80.64 540.36 C 94.46 545.86 111.78 547.61 124.57 538.67 C 132.66 532.21 135.36 519.31 129.28 510.64 C 125.98 505.61 119.93 503.84 115.07 500.79 C 121.67 498.06 128.38 501.60 134.94 502.60 C 137.33 515.44 137.69 529.48 131.23 541.26 C 127.40 548.93 119.35 553.66 111.10 555.10 C 100.38 556.93 88.92 555.90 79.17 550.87 C 72.35 547.28 66.29 541.48 63.99 533.96 C 59.72 520.94 62.96 506.66 69.21 494.84 Z" />
<path fill="#10304e" opacity="0.97" d=" M 1178.13 513.09 C 1179.26 510.52 1179.19 507.54 1179.81 504.81 C 1185.17 513.19 1183.52 523.50 1183.71 532.91 C 1182.06 530.12 1180.33 527.38 1178.57 524.66 C 1163.37 530.37 1148.76 537.47 1133.87 543.91 C 1131.60 544.85 1129.54 546.22 1127.66 547.77 C 1146.38 551.55 1164.57 557.95 1183.61 560.10 C 1183.72 557.07 1183.88 554.03 1184.15 551.02 C 1186.22 552.38 1187.39 554.57 1187.38 557.06 C 1187.72 563.15 1189.75 569.53 1187.23 575.40 C 1185.36 572.37 1184.76 567.77 1180.97 566.49 C 1159.93 559.90 1138.29 555.50 1117.06 549.60 C 1113.95 548.96 1113.31 544.17 1114.98 542.10 C 1135.70 531.76 1157.71 524.06 1178.13 513.09 Z" />
<path fill="#10304e" opacity="0.97" d=" M 60.00 554.57 C 61.16 557.64 62.26 560.93 64.78 563.20 C 69.42 567.64 75.62 569.79 81.20 572.78 C 88.16 576.04 94.66 580.52 102.17 582.45 C 109.88 583.27 117.65 582.57 125.38 582.42 C 125.83 579.20 126.30 575.99 126.76 572.79 C 127.74 572.50 128.72 572.22 129.70 571.95 C 130.13 582.72 130.35 593.52 129.53 604.28 C 125.74 601.92 125.90 597.18 125.44 593.27 C 115.78 592.83 105.34 590.84 96.34 595.44 C 87.99 599.27 79.82 603.45 71.65 607.63 C 69.27 608.89 66.69 609.86 64.58 611.58 C 62.39 613.93 61.57 617.17 60.19 620.01 C 57.79 614.63 58.90 608.69 58.70 603.01 C 58.72 599.30 57.84 595.03 60.73 592.10 C 61.80 595.03 62.72 598.01 63.60 601.01 C 74.63 595.96 85.62 590.79 96.31 585.04 C 85.39 579.98 74.63 574.58 63.48 570.04 C 62.68 572.96 61.78 575.88 60.40 578.59 C 59.15 576.24 58.43 573.66 58.64 571.00 C 58.91 565.51 57.84 559.79 60.00 554.57 Z" />
<path fill="#10304e" opacity="0.97" d=" M 1117.34 576.37 C 1120.86 578.25 1121.26 582.40 1122.17 585.87 C 1142.63 586.59 1163.12 587.42 1183.60 587.03 C 1184.46 583.62 1185.44 580.08 1188.03 577.53 C 1188.54 594.34 1187.48 611.15 1187.25 627.95 C 1181.20 627.39 1173.55 630.64 1168.98 625.20 C 1173.36 624.00 1179.15 624.12 1181.76 619.74 C 1185.11 612.80 1183.83 604.88 1183.81 597.46 C 1174.50 597.09 1165.18 596.97 1155.87 596.75 C 1155.81 602.50 1155.26 608.28 1155.91 614.02 C 1156.25 619.04 1162.61 619.13 1165.36 622.43 C 1157.16 622.37 1148.08 624.97 1140.65 620.32 C 1143.66 619.31 1146.72 618.45 1149.81 617.67 C 1151.62 610.86 1151.58 603.78 1151.91 596.79 C 1142.17 596.89 1132.34 595.02 1122.69 596.81 C 1119.74 601.59 1119.93 607.64 1120.24 613.07 C 1120.69 616.57 1120.48 621.03 1123.88 623.17 C 1127.55 625.54 1132.26 626.47 1134.88 630.28 C 1128.58 630.11 1122.32 629.37 1116.05 628.88 C 1115.69 611.36 1117.07 593.88 1117.34 576.37 Z" />
<path fill="#10304e" opacity="0.97" d=" M 125.15 614.30 C 125.74 611.28 126.09 607.85 128.93 606.02 C 130.05 615.26 131.60 624.48 131.67 633.81 C 128.36 632.05 127.53 628.32 126.54 625.04 C 119.24 628.07 111.93 631.09 104.89 634.69 C 105.30 641.79 106.40 648.81 107.19 655.86 C 114.76 657.46 122.33 659.20 130.05 659.91 C 130.86 656.70 131.66 653.49 132.51 650.29 C 136.00 657.81 135.82 666.27 136.20 674.37 C 133.65 672.82 132.29 670.16 131.25 667.47 C 108.75 660.11 85.27 656.50 62.35 650.75 C 62.19 648.25 62.01 645.77 61.85 643.29 C 82.83 633.37 104.40 624.72 125.15 614.30 M 73.62 648.58 C 83.24 651.13 93.05 652.89 102.73 655.17 C 102.13 648.84 101.34 642.53 100.52 636.22 C 91.60 640.44 82.51 644.29 73.62 648.58 Z" />
<path fill="#10304e" opacity="0.97" d=" M 1115.33 636.10 C 1115.65 634.59 1117.02 633.72 1118.02 632.66 C 1118.60 636.14 1116.52 642.44 1121.38 643.37 C 1140.94 646.29 1160.44 649.70 1180.12 651.69 C 1181.14 648.42 1182.31 645.19 1183.77 642.10 C 1187.01 647.03 1184.25 652.68 1183.55 657.91 C 1181.88 666.54 1181.78 675.73 1177.68 683.69 C 1174.77 689.46 1168.43 693.51 1161.88 692.83 C 1152.88 692.27 1145.53 684.63 1144.07 675.93 C 1141.60 680.38 1137.11 683.38 1132.07 684.00 C 1126.54 685.12 1120.81 684.25 1115.29 685.35 C 1111.47 686.92 1109.57 690.92 1106.99 693.89 C 1105.31 687.53 1107.68 681.18 1110.73 675.66 C 1119.95 673.70 1129.65 675.32 1138.71 672.52 C 1144.47 669.82 1144.33 662.45 1145.42 657.09 C 1135.99 655.67 1126.57 654.08 1117.07 653.15 C 1115.69 656.05 1113.97 658.79 1111.77 661.15 C 1112.11 652.72 1113.11 644.26 1115.33 636.10 M 1149.17 657.72 C 1148.23 663.91 1146.18 671.15 1150.29 676.65 C 1154.53 681.22 1161.45 682.79 1167.45 681.63 C 1175.77 680.04 1179.41 669.81 1177.71 662.40 C 1168.44 659.77 1158.65 659.39 1149.17 657.72 Z" />
<path fill="#10304e" opacity="0.97" d=" M 322.10 647.64 C 324.67 647.60 327.25 647.58 329.82 647.55 C 333.35 677.15 339.50 706.45 348.44 734.90 C 350.21 740.64 347.65 746.41 346.23 751.92 C 334.02 718.29 326.49 683.10 322.10 647.64 Z" />
<path fill="#10304e" opacity="0.97" d=" M 108.47 684.43 C 114.27 678.18 124.14 676.68 131.76 680.23 C 138.31 683.75 141.65 691.03 143.36 697.94 C 145.89 708.32 149.20 718.56 150.63 729.17 C 148.05 727.09 146.55 724.08 144.32 721.71 C 143.02 720.38 141.09 721.14 139.54 721.44 C 121.03 726.05 102.18 729.27 83.88 734.73 C 84.20 737.90 84.49 741.07 84.63 744.27 C 80.14 742.29 80.17 737.04 79.07 732.99 C 76.84 722.14 71.74 711.44 73.54 700.14 C 75.10 692.56 83.73 688.67 90.87 689.53 C 96.33 690.39 100.26 694.73 103.62 698.76 C 103.17 693.56 104.69 688.15 108.47 684.43 M 109.38 698.33 C 106.96 704.66 109.45 711.38 111.03 717.60 C 121.23 715.19 131.65 713.55 141.53 709.95 C 141.06 703.28 139.18 696.47 134.79 691.29 C 133.00 688.86 129.61 689.21 126.95 688.95 C 120.02 688.51 112.25 691.62 109.38 698.33 M 78.60 708.40 C 76.92 713.81 79.81 719.09 81.41 724.14 C 90.12 722.90 98.63 720.62 107.19 718.63 C 105.90 713.44 104.86 707.88 101.43 703.60 C 95.35 696.09 81.13 699.01 78.60 708.40 Z" />
<path fill="#10304e" opacity="0.97" d=" M 1103.15 707.14 C 1106.25 703.93 1111.17 704.78 1115.01 705.94 C 1117.94 706.98 1121.33 707.37 1123.63 709.66 C 1117.52 711.99 1110.32 710.86 1104.85 714.86 C 1099.05 718.76 1095.79 727.15 1099.44 733.54 C 1102.84 739.40 1110.89 741.99 1117.07 739.16 C 1127.17 734.61 1130.80 722.16 1141.28 718.16 C 1149.23 714.93 1159.29 717.82 1164.10 724.98 C 1166.68 728.79 1167.04 733.60 1166.73 738.07 C 1166.13 745.81 1162.42 753.04 1157.21 758.71 C 1151.74 758.16 1145.11 757.84 1141.78 752.73 C 1147.72 752.68 1154.50 752.54 1159.03 748.10 C 1162.39 744.20 1164.29 738.17 1161.62 733.41 C 1158.95 728.17 1152.15 725.05 1146.62 727.60 C 1136.80 732.05 1133.07 743.66 1123.58 748.59 C 1113.45 754.30 1098.74 749.30 1094.72 738.26 C 1091.70 727.34 1095.72 715.38 1103.15 707.14 Z" />
<path fill="#10304e" opacity="0.97" d=" M 149.21 728.56 C 153.76 732.77 157.16 739.57 154.69 745.72 C 149.28 753.41 138.58 754.58 132.87 761.94 C 129.95 767.25 133.52 773.04 135.40 778.07 C 144.26 775.00 153.05 771.75 161.84 768.50 C 161.59 765.41 161.65 762.31 162.09 759.25 C 168.42 766.85 170.26 776.87 173.93 785.81 C 170.22 784.43 168.06 781.07 165.85 778.03 C 149.57 783.27 133.73 789.76 117.55 795.30 C 114.35 796.33 111.27 797.74 108.45 799.59 C 109.04 803.02 110.20 806.76 108.20 809.99 C 103.49 799.99 99.41 789.71 95.47 779.40 C 93.23 773.72 92.61 767.03 95.41 761.44 C 97.59 756.96 102.43 754.56 107.06 753.44 C 114.44 752.01 121.41 756.17 126.41 761.23 C 127.39 757.54 127.77 753.35 130.50 750.44 C 135.31 745.68 142.32 743.88 146.89 738.84 C 149.03 735.89 148.61 731.98 149.21 728.56 M 101.49 769.42 C 97.35 775.79 100.98 783.47 104.10 789.44 C 113.46 786.44 122.61 782.83 131.84 779.46 C 129.40 773.66 127.35 766.74 121.43 763.56 C 114.47 761.00 106.16 763.86 101.49 769.42 Z" />
<path fill="#10304e" opacity="0.97" d=" M 1085.82 752.79 C 1086.58 750.92 1088.61 750.31 1090.28 749.53 C 1089.63 752.68 1088.85 755.81 1088.07 758.93 C 1107.05 766.92 1126.46 773.81 1145.80 780.86 C 1147.86 777.75 1150.06 774.62 1153.36 772.70 C 1151.12 781.12 1147.71 789.19 1143.90 797.00 C 1143.16 798.72 1141.32 799.44 1139.91 800.46 C 1140.46 797.25 1141.10 794.05 1141.71 790.86 C 1133.54 786.58 1124.63 784.11 1116.09 780.75 C 1105.31 776.85 1094.91 771.84 1083.72 769.19 C 1081.80 772.03 1079.73 774.77 1077.44 777.33 C 1077.34 773.14 1078.63 769.13 1080.47 765.42 C 1082.50 761.32 1083.84 756.91 1085.82 752.79 Z" />
<path fill="#10304e" opacity="0.97" d=" M 1154.39 785.45 C 1156.71 784.83 1159.16 785.45 1161.53 785.58 C 1162.13 788.27 1163.35 791.25 1161.93 793.91 C 1159.96 797.01 1154.84 797.66 1152.53 794.58 C 1149.77 791.86 1150.97 786.95 1154.39 785.45 Z" />
<path fill="#10304e" opacity="0.97" d=" M 1054.46 818.98 C 1059.04 808.43 1064.48 798.18 1070.86 788.61 C 1072.13 792.82 1070.27 796.83 1069.19 800.82 C 1072.33 803.50 1076.50 804.80 1080.09 806.88 C 1094.66 814.19 1109.56 820.85 1124.05 828.33 C 1126.88 823.20 1131.51 817.66 1129.57 811.43 C 1126.98 808.15 1123.52 805.66 1121.13 802.21 C 1127.60 803.01 1133.22 806.67 1138.97 809.50 C 1130.22 826.28 1120.74 842.68 1112.04 859.49 C 1106.40 856.81 1099.48 855.24 1095.93 849.64 C 1100.55 850.07 1105.24 851.65 1109.90 850.74 C 1114.77 847.70 1116.78 841.97 1119.35 837.12 C 1100.75 828.59 1082.81 818.64 1063.94 810.71 C 1061.03 813.74 1058.46 817.31 1054.46 818.98 Z" />
<path fill="#10304e" opacity="0.97" d=" M 131.44 815.45 C 141.46 805.37 155.64 798.98 169.99 799.74 C 189.39 801.06 203.97 824.91 194.33 842.37 C 190.82 848.62 185.18 853.64 178.73 856.70 C 176.05 857.87 173.85 855.39 172.75 853.25 C 165.17 840.64 158.09 827.72 150.24 815.27 C 142.43 820.13 133.73 825.45 130.49 834.57 C 127.23 843.64 133.28 853.65 141.62 857.42 C 147.75 860.42 154.72 858.66 161.22 858.48 C 157.75 864.50 150.61 866.01 144.88 869.00 C 136.52 861.17 127.79 852.62 124.66 841.24 C 122.02 832.23 124.89 822.08 131.44 815.45 M 154.31 813.26 C 161.01 824.37 167.11 835.84 174.16 846.74 C 181.54 841.91 190.00 836.28 191.65 826.92 C 192.90 818.28 185.70 809.48 176.99 808.93 C 169.19 808.03 161.43 810.26 154.31 813.26 Z" />
<path fill="#10304e" opacity="0.97" d=" M 1015.70 874.06 C 1026.76 859.71 1035.92 843.87 1048.29 830.55 C 1048.02 834.25 1046.89 837.80 1045.54 841.24 C 1062.54 851.79 1078.77 863.57 1096.19 873.46 C 1099.13 871.48 1101.96 869.35 1104.82 867.25 C 1103.85 873.16 1099.56 877.57 1096.29 882.31 C 1089.46 891.64 1082.65 900.98 1075.87 910.34 C 1070.69 906.87 1065.09 903.80 1061.03 898.95 C 1065.41 899.49 1069.65 900.92 1074.07 901.25 C 1082.13 897.94 1085.88 889.42 1090.79 882.82 C 1083.34 877.58 1075.50 872.95 1068.06 867.71 C 1063.60 873.19 1059.54 879.00 1056.17 885.21 C 1058.09 887.61 1060.03 890.00 1061.88 892.47 C 1058.14 893.31 1054.93 890.90 1051.89 889.15 C 1048.24 886.84 1044.80 884.25 1041.36 881.67 C 1044.84 878.22 1050.36 883.51 1053.59 879.71 C 1057.55 875.35 1060.57 870.24 1064.31 865.69 C 1056.34 860.01 1048.07 854.77 1039.51 850.04 C 1033.85 855.79 1027.64 861.87 1025.70 869.98 C 1025.34 875.73 1030.21 879.88 1031.90 885.07 C 1026.08 882.05 1020.89 878.02 1015.70 874.06 Z" />
<path fill="#10304e" opacity="0.97" d=" M 194.54 859.05 C 198.82 853.70 205.17 850.82 210.77 847.12 C 222.43 862.34 234.68 877.11 246.22 892.44 C 219.20 894.30 192.11 894.63 165.04 895.48 C 170.90 903.01 175.97 911.45 183.66 917.30 C 189.05 920.31 194.73 915.72 200.22 915.22 C 196.63 920.79 190.98 924.56 184.96 927.08 C 174.18 913.88 163.35 900.70 153.34 886.90 C 180.38 885.16 207.49 885.22 234.55 883.82 C 227.67 875.32 221.77 865.85 213.34 858.74 C 207.71 854.60 200.68 858.48 194.54 859.05 Z" />
<path fill="#10304e" opacity="0.97" d=" M 982.25 911.62 C 989.82 902.58 997.02 892.95 1006.67 885.99 C 1005.30 890.18 1003.39 894.17 1001.27 898.03 C 1016.74 910.98 1032.36 923.76 1047.71 936.86 C 1051.42 932.55 1056.04 928.55 1057.57 922.86 C 1056.21 918.47 1053.08 914.89 1051.56 910.55 C 1057.25 913.31 1061.97 917.58 1066.85 921.53 C 1053.99 935.94 1040.69 949.95 1027.48 964.05 C 1022.77 960.05 1017.78 956.37 1013.48 951.92 C 1019.03 950.81 1023.56 956.15 1029.01 954.71 C 1033.90 952.54 1037.01 947.90 1040.64 944.18 C 1025.00 931.35 1009.75 918.06 994.04 905.32 C 990.46 908.01 986.74 910.73 982.25 911.62 Z" />
<path fill="#10304e" opacity="0.97" d=" M 249.91 898.19 C 257.55 904.28 265.39 910.44 271.13 918.44 C 267.74 917.56 264.54 916.12 261.48 914.45 C 257.69 921.00 254.53 927.88 251.43 934.78 C 256.90 939.67 261.68 945.42 268.05 949.23 C 275.14 946.01 282.42 942.93 288.45 937.88 C 286.30 935.65 284.20 933.37 282.23 930.99 C 284.63 930.98 287.15 931.33 288.93 933.12 C 293.69 937.40 299.04 941.34 302.37 946.93 C 299.33 946.36 296.40 945.34 293.65 943.93 C 271.66 951.86 251.18 963.29 229.90 972.83 C 227.96 971.17 226.03 969.50 224.11 967.84 C 232.38 950.28 240.85 932.80 249.42 915.38 C 250.54 912.98 252.03 910.68 252.54 908.05 C 252.27 904.64 250.71 901.49 249.91 898.19 M 249.52 938.78 C 244.85 947.31 240.69 956.10 236.46 964.85 C 245.47 960.50 254.57 956.33 263.40 951.60 C 258.85 947.24 254.24 942.94 249.52 938.78 Z" />
<path fill="#10304e" opacity="0.97" d=" M 965.92 925.84 C 967.96 923.84 970.40 922.18 973.35 922.01 C 971.81 925.09 969.46 927.66 967.78 930.66 C 974.68 938.90 982.48 946.33 990.12 953.88 C 996.86 960.16 1002.49 967.65 1009.97 973.11 C 1013.16 971.33 1016.49 969.25 1020.33 969.79 C 1014.00 975.65 1007.80 981.69 1001.11 987.14 C 999.62 988.55 997.51 988.70 995.61 989.09 C 997.41 986.27 999.35 983.55 1001.30 980.84 C 997.67 975.19 992.25 971.11 987.75 966.23 C 978.58 956.72 969.23 947.38 959.86 938.07 C 956.38 939.84 952.76 941.40 948.88 941.99 C 953.73 935.79 960.21 931.19 965.92 925.84 Z" />
<path fill="#10304e" opacity="0.97" d=" M 511.06 985.49 C 520.13 983.43 529.43 982.59 538.60 981.05 C 538.49 1004.14 538.35 1027.24 538.69 1050.33 C 542.59 1050.96 546.49 1051.57 550.41 1052.10 C 550.30 1053.36 550.20 1054.63 550.10 1055.92 C 536.31 1056.67 522.51 1056.14 508.71 1056.18 C 508.65 1054.82 508.60 1053.47 508.55 1052.14 C 512.57 1051.63 516.59 1051.10 520.62 1050.58 C 520.63 1030.88 521.29 1011.16 520.30 991.47 C 517.11 990.73 513.79 990.44 510.74 989.24 C 508.88 988.61 508.96 985.61 511.06 985.49 Z" />
<path fill="#10304e" opacity="0.97" d=" M 569.41 984.49 C 580.40 979.20 594.74 979.71 604.37 987.62 C 609.36 991.64 611.45 997.97 612.64 1004.04 C 615.31 1017.09 614.19 1030.96 609.20 1043.33 C 605.96 1051.00 598.08 1055.67 590.13 1057.08 C 582.50 1058.43 574.34 1057.95 567.21 1054.76 C 563.13 1052.87 559.35 1049.48 558.44 1044.91 C 558.30 1038.97 566.16 1034.40 571.11 1037.90 C 574.49 1041.77 574.91 1047.63 579.06 1050.93 C 582.22 1053.10 586.15 1051.24 589.53 1050.59 C 594.60 1041.85 595.31 1031.57 595.73 1021.72 C 586.66 1030.68 570.57 1030.42 561.86 1021.12 C 552.33 1010.18 556.39 990.83 569.41 984.49 M 582.18 987.18 C 578.66 988.74 576.51 992.38 575.74 996.04 C 574.41 1001.86 574.18 1008.39 577.21 1013.75 C 579.03 1016.79 582.09 1019.84 585.95 1019.45 C 588.62 1019.14 592.43 1019.76 593.62 1016.64 C 597.52 1009.66 595.56 1001.30 593.55 994.05 C 592.34 989.37 587.11 984.89 582.18 987.18 Z" />
<path fill="#10304e" opacity="0.97" d=" M 636.92 982.19 C 646.82 980.22 658.02 980.52 666.59 986.46 C 672.87 990.82 674.31 999.84 671.52 1006.62 C 668.83 1011.90 662.88 1014.06 657.70 1016.09 C 663.59 1017.81 669.91 1020.23 673.35 1025.66 C 678.07 1033.45 677.01 1044.83 669.91 1050.88 C 663.76 1055.81 655.65 1057.47 647.93 1057.62 C 640.88 1057.66 633.48 1057.29 627.15 1053.85 C 622.95 1051.60 619.24 1047.76 618.46 1042.92 C 619.15 1036.46 626.73 1033.89 632.31 1035.40 C 634.61 1041.06 636.45 1047.58 641.73 1051.25 C 645.38 1053.56 649.69 1051.38 653.44 1050.47 C 657.16 1042.70 658.65 1033.26 654.88 1025.22 C 653.50 1021.70 649.57 1020.06 646.02 1020.02 C 641.03 1019.94 636.16 1021.26 631.19 1021.58 C 631.16 1018.38 631.19 1015.20 631.28 1012.02 C 637.10 1012.18 643.06 1014.72 648.80 1012.77 C 651.72 1011.85 653.18 1008.93 653.77 1006.15 C 654.85 1001.52 654.71 996.63 653.67 992.02 C 652.40 987.25 645.98 985.00 641.99 987.92 C 637.49 990.98 636.84 996.83 634.21 1001.22 C 633.35 1003.18 630.79 1003.20 628.98 1003.05 C 625.26 1002.55 622.58 999.68 620.09 997.15 C 621.78 989.08 629.18 983.73 636.92 982.19 Z" />
<path fill="#10304e" opacity="0.97" d=" M 702.48 981.69 C 711.27 980.07 721.16 981.83 727.71 988.28 C 734.84 995.14 736.86 1005.44 737.63 1014.92 C 738.12 1026.49 737.06 1039.16 729.68 1048.62 C 721.62 1058.63 706.44 1059.92 695.26 1054.84 C 686.44 1050.38 681.87 1040.53 680.42 1031.15 C 678.94 1019.66 678.96 1007.46 683.69 996.67 C 686.99 989.00 694.15 982.97 702.48 981.69 M 705.23 986.66 C 699.41 994.88 698.22 1005.20 698.25 1015.01 C 698.34 1025.00 697.82 1035.33 701.22 1044.90 C 702.38 1048.08 704.35 1051.70 708.02 1052.37 C 711.67 1052.79 714.19 1049.37 715.46 1046.38 C 719.05 1037.73 718.85 1028.16 719.06 1018.97 C 718.86 1008.06 718.95 996.16 712.29 986.90 C 709.93 986.85 707.58 986.75 705.23 986.66 Z" />
<path fill="#10304e" opacity="0.97" d=" M 1009.65 987.93 C 1009.70 984.84 1012.00 982.53 1013.73 980.22 C 1016.50 981.34 1020.39 981.72 1021.55 985.00 C 1022.30 989.23 1017.74 993.81 1013.50 992.37 C 1011.68 991.57 1009.63 990.13 1009.65 987.93 Z" />
</g>
</svg>
